<svg xmlns="http://www.w3.org/2000/svg" width="115.138" height="138.606" viewBox="0 0 115.138 138.606">
  <g id="layer1" transform="translate(-72.727 -200.188)">
    <g id="g3844" transform="translate(72.727 200.188)">
      <path id="path3432" d="M323,315.431a7.388,7.388,0,0,1,.289-.938c1.339-3.783,2.555-12.176,3.453-23.839.385-4.994,1.059-14.875,1.058-15.515,0-.319-.063-.447-.188-.386-3.425,1.673-8.742,3.939-10.989,4.683A32.725,32.725,0,0,1,305,281.423c-4.286,0-6.24-.458-7.256-1.711a2.551,2.551,0,0,1,.172-3.59c1.492-1.669,4.7-2.584,11.209-3.2,2.292-.216,4.852-.287,10.839-.3l7.839-.016v-3.091l-.488,0c-.268,0-3.12,0-6.338,0s-6.594-.074-7.5-.165L311,269.1a47.765,47.765,0,0,1-8.4-1.463l-.675-.208.9-.1c.5-.057,3.364.043,6.376.224,5.608.336,16.272.471,17.815.225l.788-.125v-5.164c0-4.479-.03-5.164-.225-5.164a.24.24,0,0,1-.225-.251c0-.2.233-.251,1.2-.251s1.2.049,1.2.251a.24.24,0,0,1-.225.251c-.2,0-.225.668-.225,5.013v5.013h.352a124.168,124.168,0,0,0,14.051-3.664,76.8,76.8,0,0,0,9.578-4.819,21.938,21.938,0,0,1,3.15-1.621c.146.166-.739.955-2.6,2.32-3.02,2.214-7.8,5.112-17.1,10.376-2.888,1.634-5.315,3.035-5.393,3.113s.177.143.6.143c2.364,0,13.529,1.833,20.471,3.359,12.264,2.7,19.053,4.4,19.053,4.773,0,.428-.318.38-8.4-1.264-12.049-2.451-29.226-5.2-32.506-5.2h-1.081l-.077.71c-.043.39-.184,2.59-.315,4.887s-.269,4.341-.307,4.541-.237,2.193-.441,4.428c-.736,8.052-1.311,12.7-2.093,16.938a61.024,61.024,0,0,1-1.825,7.17c-.23.523-1.409,2.1-1.41,1.892Zm-13.5-35.576c2.913-.359,8.48-2.171,13.619-4.434l2.592-1.141-6.643-.051a87.405,87.405,0,0,0-13.376.567c-4.49.616-7.294,1.9-7.294,3.334,0,.864,1.535,1.686,3.587,1.922A48.831,48.831,0,0,0,309.5,279.855Zm25.042-10.346c2.659-1.475,5.015-2.762,5.236-2.86.836-.371.031-.3-1.183.111-.7.233-1.728.538-2.292.677s-1.881.51-2.925.824-2.355.657-2.912.763l-1.013.194V270.7a4.483,4.483,0,0,0,.127,1.487C329.646,272.191,331.878,270.984,334.537,269.509Z" transform="translate(-272.548 -214.508)" fill="#d81449"/>
      <path id="path3842" d="M213.563,162.583c-6.31-5.013-14.752-12.294-18.76-16.18-6.879-6.668-7.194-7.075-5.618-7.249.919-.1,1.67-.337,1.67-.523s-2.367-4.4-5.261-9.358c-8.316-14.256-11.87-23.179-14.688-36.871a151.3,151.3,0,0,1-3.135-25.189c-.814-13.611-1.148-12.808,5.981-14.353a47.2,47.2,0,0,0,16.47-6.728c4.348-2.984,4.512-3.053,3.673-1.548q-1.7,3.058,3.392,1.437c4.318-1.379,12.945-5.365,20.373-9.413l6.461-3.521,5.989,3.43c10.5,6.013,21.928,10.928,23.391,10.06.336-.2.439-1.023.228-1.829-.38-1.452-.359-1.448,2.144.455,5.574,4.239,12.174,6.659,24.684,9.054.987.189,1.454.831,1.775,2.438.646,3.24-.787,24.428-2.218,32.793-2.842,16.61-6.2,25.5-15.191,40.234a78.516,78.516,0,0,0-4.835,8.586c0,.365.7.746,1.557.848,1.418.168.86.851-6.225,7.619-6.76,6.458-28.976,24.9-30.015,24.919C225.2,171.7,219.873,167.6,213.563,162.583Zm7.531-6.482a22.337,22.337,0,0,0,2.25-4.764l1.08-3.161,1.758,3.719c2.114,4.471,3.285,5.81,5.084,5.81,3.754,0,18.021-12.07,24.9-21.064,10.316-13.493,16.1-25.341,18.542-38,1.631-8.446,2.232-23.091,1.079-26.3-1.259-3.5-3.43-4.72-8.417-4.72-4.136,0-4.161-.009-3.056-1.166,1.826-1.912,3.666-5.162,3.669-6.481.005-3.039-3.51-5.4-12.629-8.473-2.906-.98-7.3-2.673-9.772-3.763-7.679-3.39-14.944-2.5-19.4,2.374L224.4,52.057l-1.284-1.667c-2.194-2.85-6.324-4.759-10.985-5.08-3.968-.273-4.419-.162-10.734,2.632-3.626,1.6-8.418,3.489-10.649,4.189-4.619,1.45-8.721,4.06-9.734,6.2-.824,1.737.215,4.233,3.052,7.332l1.8,1.963-3.527-.2c-4.161-.23-7.279.949-8.546,3.232-.618,1.113-.839,3.827-.816,10.031.027,7.523.25,9.347,1.929,15.794a99.756,99.756,0,0,0,15.177,33.526c7.819,11.485,15.269,19.364,24.16,25.553C217.906,158.116,219.53,158.244,221.094,156.1Z" transform="translate(-167.354 -33.086)" fill="#d81449"/>
    </g>
  </g>
</svg>
